<svg xmlns="http://www.w3.org/2000/svg" xmlns:xlink="http://www.w3.org/1999/xlink" viewBox="0 0 32 32"><defs><style>.cls-1{fill:none;}.cls-2{fill:#2c4f8e;}.cls-3{clip-path:url(#clip-path);}.cls-4,.cls-5,.cls-7{fill:#7794c9;}.cls-4,.cls-6,.cls-7{stroke:#2c4f8e;}.cls-4,.cls-7{stroke-miterlimit:10;}.cls-4{stroke-width:0.25px;}.cls-6,.cls-8{fill:#cedaf0;}.cls-6{stroke-linejoin:round;}</style><clipPath id="clip-path"><circle class="cls-1" cx="16" cy="16" r="16"/></clipPath></defs><g id="Logo4_32x32"><circle class="cls-2" cx="16" cy="16" r="16"/><g class="cls-3"><path class="cls-4" d="M24.54,22.09s2.85-.09,3.33-.84a21.73,21.73,0,0,0,1.51-5.55s.29-1.9-3.94-3.26"/><path class="cls-5" d="M24.65,31q0,.42,0,.84c-.31,6-2.71,10.69-8.47,10.69S8,37.86,7.68,32c0-.33,0-.66,0-1A15.17,15.17,0,0,1,8.15,27l.51-.21A21.33,21.33,0,0,1,16,25.67a21.06,21.06,0,0,1,7.42,1.19c.26.1.51.21.75.32A15.49,15.49,0,0,1,24.65,31Z"/><path class="cls-5" d="M24.88,31q0,.42,0,.84c-.31,6-2.71,10.7-8.48,10.7S8.26,37.86,7.89,32q0-.49,0-1A15.16,15.16,0,0,1,8.37,27l.51-.21a21.33,21.33,0,0,1,7.36-1.17,21,21,0,0,1,7.42,1.2c.26.1.51.21.75.32A15.49,15.49,0,0,1,24.88,31Z"/><path class="cls-6" d="M23.84,27.66c-1.28,1.54-1.37,9-7.69,8.91S10.37,30,8.46,27.66c0-.25,0-.48,0-.73l.5-.18a46.48,46.48,0,0,0,7.78.5,57.08,57.08,0,0,0,6.89-.35l.17.06C23.83,27.19,23.84,27.43,23.84,27.66Z"/><path class="cls-5" d="M23.65,26.9a57.08,57.08,0,0,1-6.89.35A46.48,46.48,0,0,1,9,26.75a21.7,21.7,0,0,1,7.13-1.08A21.15,21.15,0,0,1,23.65,26.9Z"/><path class="cls-2" d="M23.3,27.18c0,.28-3.2.75-7.15.75S9,27.46,9,27.18s3.36-.91,7.31-.91S23.3,26.9,23.3,27.18Z"/><ellipse class="cls-7" cx="7.06" cy="29.33" rx="3.85" ry="3.18" transform="translate(-18.67 13.58) rotate(-45)"/><ellipse class="cls-7" cx="25.71" cy="29.2" rx="3.18" ry="3.85" transform="translate(-13.12 26.73) rotate(-45)"/><path class="cls-2" d="M27.79,12.87a4,4,0,0,1,.19,1,8.06,8.06,0,0,1,0,1,7.8,7.8,0,0,1-.13,1c-.06.31-.14.62-.23.93.05-.32.09-.63.11-.95s0-.63,0-1a7,7,0,0,0-.14-.92,3.77,3.77,0,0,0-.28-.86Z"/><path class="cls-2" d="M25.85,22s0,0,0,0h.05L26,22a1.43,1.43,0,0,0,.22-.15,2,2,0,0,0,.37-.44,3.5,3.5,0,0,0,.29-.54,5.83,5.83,0,0,0,.23-.58c0,.21-.06.41-.11.62a4.31,4.31,0,0,1-.19.61,2.62,2.62,0,0,1-.32.59,2,2,0,0,1-.25.25l-.17.11a.57.57,0,0,1-.23.07Z"/><path class="cls-4" d="M7.68,22.09s-3-.09-3.29-.84A29.57,29.57,0,0,1,2.84,15.7s-.29-1.9,3.93-3.26"/><path class="cls-2" d="M4.86,13.07a4.13,4.13,0,0,0-.26.84,7,7,0,0,0-.11.92,7.22,7.22,0,0,0,0,.93,7.33,7.33,0,0,0,.13.94c-.1-.3-.19-.61-.26-.92a7.5,7.5,0,0,1-.14-.95,6.27,6.27,0,0,1,0-1,4.47,4.47,0,0,1,.17-1Z"/><path class="cls-2" d="M6.22,22.71a.8.8,0,0,1-.16-.16l-.12-.15-.19-.32a4.27,4.27,0,0,1-.27-.67c-.07-.22-.13-.45-.18-.68s-.09-.45-.12-.68c.07.22.15.43.24.65a5.71,5.71,0,0,0,.29.61,5.5,5.5,0,0,0,.36.57c.07.08.14.17.21.24l.11.1.1.07Z"/><path class="cls-6" d="M26.17,15.48V17.6A6.55,6.55,0,0,1,24.45,22l-.13.14-.1.1-.11.1a6,6,0,0,1-1.77,1.14,15.16,15.16,0,0,1-6.24,1.23,15.16,15.16,0,0,1-6.24-1.23,5.88,5.88,0,0,1-1.78-1.14.94.94,0,0,1-.1-.1l-.11-.1-.1-.11,0,0A6.55,6.55,0,0,1,6,17.6V15.48a6.34,6.34,0,0,1,4-6,.65.65,0,0,0,0,.13,5,5,0,0,1,1.89,1.52A5.45,5.45,0,0,1,12.9,14h6.71a5.39,5.39,0,0,1,1.05-2.7,5,5,0,0,1,1.88-1.52s0-.08,0-.13A6.38,6.38,0,0,1,26.17,15.48Z"/><path class="cls-5" d="M23.47,15.35v2.4a4.35,4.35,0,0,1-.55,2.13,4,4,0,0,1-1,1.2s0,0,0,0a6.53,6.53,0,0,1-.7.46,10.86,10.86,0,0,1-5.1,1.15A10.75,10.75,0,0,1,11,21.55a4.57,4.57,0,0,1-.69-.45h0a4.24,4.24,0,0,1-1-1.21,4.49,4.49,0,0,1-.54-2.13v-2.4a4.39,4.39,0,0,1,.55-2.14h0a3.9,3.9,0,0,1,.92-1.13,5.83,5.83,0,0,1,.88-.58,6.51,6.51,0,0,1,.75-.34A5.45,5.45,0,0,1,12.9,14h6.71a5.39,5.39,0,0,1,1.05-2.7l.44.22a4.88,4.88,0,0,1,.89.58l0,0a4.31,4.31,0,0,1,.88,1.1A4.44,4.44,0,0,1,23.47,15.35Z"/><path class="cls-6" d="M22.54,9.76a5,5,0,0,0-1.88,1.52A12.66,12.66,0,0,0,19.61,14c-.1.4-6.32.36-6.71,0s-.48-2-1.07-2.82A5,5,0,0,0,9.94,9.64a.65.65,0,0,1,0-.13,3,3,0,0,1,2-1.69c1.83-.62,7-.63,8.55,0a2.4,2.4,0,0,1,2,1.81S22.53,9.72,22.54,9.76Z"/><ellipse class="cls-2" cx="11.84" cy="16.93" rx="1.11" ry="2.69"/><ellipse class="cls-2" cx="20.52" cy="16.93" rx="1.11" ry="2.69"/><path class="cls-8" d="M11.14,12.75a1.66,1.66,0,0,0-.69.53A3,3,0,0,0,10,14c-.06.13-.1.27-.16.41l-.12.42-.12.44a4,4,0,0,1-.11.44c0-.15,0-.31,0-.46s0-.3.05-.46a3.58,3.58,0,0,1,.09-.45c0-.15.09-.3.15-.44a2.41,2.41,0,0,1,.52-.79A1.22,1.22,0,0,1,11.14,12.75Z"/></g></g></svg>